<svg width="7" height="4" viewBox="0 0 7 4" fill="none" xmlns="http://www.w3.org/2000/svg">
<path d="M3.52893 0.986816C2.02954 0.986816 0.687727 1.64357 0.183426 2.62421C0.12343 2.74368 0.112946 2.88193 0.154239 3.00906C0.195533 3.13619 0.28529 3.24197 0.404067 3.30347C0.47549 3.33873 0.55403 3.35719 0.633694 3.35745C0.726785 3.35769 0.818134 3.33218 0.897606 3.28374C0.977079 3.23531 1.04157 3.16584 1.08396 3.08304C1.41266 2.44427 2.43478 1.99445 3.52893 1.99445C4.62309 1.99445 5.6452 2.44427 5.9784 3.08304C6.00844 3.14222 6.04988 3.1949 6.10035 3.23803C6.15082 3.28116 6.20932 3.31391 6.2725 3.33439C6.33567 3.35487 6.40228 3.36269 6.46849 3.35738C6.53469 3.35207 6.59919 3.33375 6.65829 3.30347C6.77824 3.24196 6.86885 3.1354 6.91022 3.0072C6.95159 2.87899 6.94034 2.73963 6.87893 2.61971C6.36563 1.64357 5.01482 0.986816 3.52893 0.986816Z" fill="#3F4E65"/>
</svg>
