<svg width="8" height="4" viewBox="0 0 8 4" fill="none" xmlns="http://www.w3.org/2000/svg">
<path d="M3.9786 0.986816C2.4792 0.986816 1.1329 1.64357 0.633105 2.62421C0.60218 2.68313 0.583342 2.74763 0.577715 2.81392C0.572088 2.88021 0.579779 2.94695 0.600333 3.01023C0.620887 3.07351 0.653885 3.13205 0.6974 3.1824C0.740915 3.23276 0.794072 3.27392 0.853733 3.30347C0.925156 3.33873 1.00371 3.35719 1.08337 3.35745C1.17647 3.35769 1.2678 3.33218 1.34727 3.28374C1.42674 3.23531 1.49125 3.16584 1.53364 3.08304C1.86234 2.44427 2.88444 1.99445 3.9786 1.99445C5.07275 1.99445 6.09486 2.44427 6.42806 3.08304C6.4581 3.14222 6.49954 3.1949 6.55001 3.23803C6.60048 3.28116 6.65899 3.31391 6.72216 3.33439C6.78534 3.35487 6.85194 3.36269 6.91815 3.35738C6.98436 3.35207 7.04886 3.33375 7.10796 3.30347C7.22705 3.24109 7.3169 3.1345 7.35815 3.00663C7.39941 2.87877 7.3888 2.73984 7.3286 2.61971C6.81979 1.64357 5.47349 0.986816 3.9786 0.986816Z" fill="#3F4E65"/>
</svg>
